<svg width="171" height="64" viewBox="0 0 171 64" fill="none" xmlns="http://www.w3.org/2000/svg">
<g filter="url(#filter0_d_315_414)">
<path d="M1.50614 24.838C-1.07686 28.422 -0.276857 33.441 3.44014 35.831C27.8267 51.5071 56.2291 59.7901 85.2193 59.6801C114.21 59.57 142.548 51.0718 166.815 35.211C170.513 32.795 171.276 27.769 168.665 24.204L153.365 3.316C150.754 -0.248996 145.762 -0.993996 142.015 1.346C124.929 12.0177 105.205 17.7118 85.0603 17.7883C64.9155 17.8648 45.1487 12.3206 27.9821 1.779C24.2171 -0.533995 19.2311 0.249005 16.6471 3.83401L1.50714 24.838H1.50614Z" fill="#D03563"/>
</g>
<path d="M45.7677 26.373C46.6817 26.649 47.4277 27.038 48.0047 27.541C48.5817 28.043 48.9677 28.627 49.1627 29.294C49.3577 29.961 49.3397 30.677 49.1077 31.443C48.7637 32.583 48.0897 33.363 47.0857 33.783C46.0827 34.205 44.8957 34.208 43.5257 33.793L41.7757 33.265L40.9807 35.895L38.1357 35.035L41.1737 24.985L45.7677 26.373ZM44.0317 31.503C44.6197 31.681 45.0997 31.685 45.4717 31.515C45.8427 31.345 46.0977 31.032 46.2357 30.575C46.3767 30.109 46.3397 29.701 46.1257 29.351C45.9107 29.001 45.5097 28.738 44.9217 28.561L43.3417 28.083L42.4527 31.026L44.0327 31.504L44.0317 31.503ZM49.5057 38.315L52.1107 27.497L54.8807 28.164L52.2767 38.982L49.5057 38.315ZM59.9017 32.033C60.7687 32.193 61.4827 32.459 62.0427 32.833C62.6027 33.206 62.9927 33.695 63.2147 34.299C63.4367 34.904 63.4697 35.629 63.3147 36.474L62.4977 40.913L59.8827 40.432L60.0727 39.399C59.5227 40.102 58.6647 40.347 57.4977 40.132C56.8577 40.015 56.3377 39.805 55.9347 39.505C55.5327 39.205 55.2507 38.848 55.0887 38.435C54.926 38.0155 54.8861 37.5583 54.9737 37.117C55.0637 36.625 55.2667 36.224 55.5797 35.915C55.8937 35.605 56.3297 35.401 56.8887 35.303C57.4467 35.204 58.1397 35.231 58.9667 35.383L60.5627 35.677C60.6157 35.266 60.5227 34.925 60.2867 34.655C60.0497 34.385 59.6537 34.199 59.0997 34.097C58.7043 34.0258 58.3003 34.0157 57.9017 34.067C57.5185 34.1092 57.1456 34.2178 56.7997 34.388L56.2117 32.311C56.7755 32.0871 57.372 31.9568 57.9777 31.925C58.6211 31.8812 59.2674 31.9174 59.9017 32.033ZM58.6077 38.506C58.9167 38.563 59.2097 38.538 59.4877 38.432C59.7657 38.326 59.9927 38.125 60.1677 37.829L60.2947 37.139L59.0807 36.915C58.6337 36.833 58.3047 36.849 58.0947 36.963C57.9927 37.0164 57.9048 37.0931 57.838 37.187C57.7713 37.2808 57.7277 37.3891 57.7107 37.503C57.688 37.6143 57.6913 37.7294 57.7205 37.8392C57.7496 37.949 57.8038 38.0506 57.8787 38.136C58.0337 38.322 58.2767 38.446 58.6077 38.506ZM71.8867 33.815L74.5837 34.109L70.1857 42.135C69.8257 42.795 69.4427 43.304 69.0387 43.66C68.6337 44.016 68.2017 44.25 67.7417 44.362C67.2817 44.474 66.7837 44.502 66.2517 44.443C65.8174 44.3942 65.3927 44.2809 64.9917 44.107C64.5767 43.93 64.2417 43.712 63.9857 43.456L65.1917 41.578C65.5407 41.94 65.9387 42.146 66.3857 42.195C66.6617 42.225 66.8927 42.194 67.0787 42.102C67.2647 42.01 67.4267 41.851 67.5657 41.624L64.9997 33.066L67.9077 33.383L69.3497 38.533L71.8867 33.815ZM89.3587 38.562C89.3587 38.707 89.3487 38.869 89.3287 39.046C89.3187 39.123 89.3127 39.196 89.3077 39.264L83.4027 39.228C83.6747 40.103 84.3357 40.543 85.3857 40.549C85.7857 40.552 86.1317 40.496 86.4237 40.382C86.7147 40.268 86.9957 40.091 87.2647 39.852L88.7547 41.422C88.3667 41.856 87.8847 42.182 87.3077 42.402C86.7317 42.622 86.0577 42.729 85.2837 42.724C84.3207 42.718 83.4817 42.53 82.7677 42.16C82.0547 41.79 81.5027 41.286 81.1137 40.65C80.7237 40.013 80.5317 39.29 80.5367 38.482C80.5417 37.663 80.7407 36.941 81.1327 36.314C81.5245 35.6874 82.0793 35.1793 82.7377 34.844C83.4147 34.491 84.1797 34.317 85.0347 34.322C85.6347 34.326 86.1977 34.422 86.7247 34.612C87.2497 34.802 87.7097 35.077 88.1027 35.438C88.4967 35.8 88.8047 36.243 89.0287 36.767C89.2537 37.291 89.3637 37.889 89.3587 38.562ZM85.0357 36.347C84.5957 36.345 84.2287 36.467 83.9357 36.712C83.6437 36.958 83.4527 37.297 83.3637 37.728L86.6917 37.748C86.6167 37.316 86.4337 36.975 86.1417 36.725C85.8497 36.476 85.4817 36.35 85.0357 36.347ZM101.46 33.395C102.09 33.343 102.662 33.424 103.176 33.635C103.69 33.847 104.11 34.205 104.436 34.713C104.763 35.22 104.96 35.893 105.027 36.731L105.403 41.366L102.562 41.596L102.224 37.423C102.177 36.839 102.032 36.425 101.788 36.183C101.545 35.94 101.238 35.833 100.867 35.864C100.609 35.8799 100.36 35.9664 100.148 36.114C99.9344 36.2726 99.7754 36.4934 99.6927 36.746C99.5917 37.023 99.5587 37.37 99.5927 37.786L99.9177 41.81L97.0777 42.04L96.7397 37.867C96.6917 37.283 96.5497 36.869 96.3097 36.627C96.0717 36.383 95.7597 36.277 95.3747 36.309C95.115 36.3256 94.8645 36.412 94.6497 36.559C94.4332 36.7159 94.2715 36.937 94.1877 37.191C94.0877 37.468 94.0537 37.816 94.0877 38.232L94.4137 42.256L91.5727 42.486L90.9167 34.385L93.6217 34.165L93.6907 35.015C93.9676 34.6664 94.3184 34.3836 94.7177 34.187C95.1309 33.9863 95.5786 33.8661 96.0367 33.833C96.5543 33.7841 97.0764 33.8483 97.5667 34.021C98.0347 34.191 98.4307 34.481 98.7567 34.893C99.3937 33.988 100.296 33.49 101.46 33.395ZM111.669 31.882C112.36 31.7508 113.074 31.8032 113.739 32.034C114.396 32.2653 114.976 32.6736 115.416 33.214C115.88 33.772 116.187 34.474 116.337 35.319C116.487 36.165 116.44 36.929 116.196 37.609C115.967 38.2667 115.563 38.8494 115.027 39.294C114.483 39.7417 113.831 40.038 113.136 40.153C112.21 40.317 111.417 40.167 110.758 39.703L111.392 43.28L108.586 43.778L106.658 32.909L109.33 32.435L109.47 33.227C109.889 32.516 110.622 32.067 111.669 31.882ZM112.15 38.028C112.451 37.9795 112.733 37.8495 112.966 37.652C113.193 37.457 113.356 37.204 113.455 36.893C113.555 36.583 113.569 36.226 113.497 35.823C113.426 35.42 113.29 35.09 113.089 34.833C112.889 34.575 112.649 34.393 112.37 34.288C112.083 34.1824 111.773 34.1571 111.474 34.215C111.174 34.2648 110.893 34.3951 110.661 34.592C110.429 34.793 110.259 35.0559 110.172 35.35C110.075 35.66 110.062 36.017 110.134 36.42C110.205 36.823 110.34 37.153 110.538 37.41C110.736 37.669 110.976 37.85 111.258 37.955C111.539 38.059 111.837 38.085 112.15 38.028ZM123.427 35.351L124.588 37.121C124.358 37.3485 124.092 37.5358 123.801 37.675C123.475 37.836 123.133 37.9607 122.78 38.047C121.765 38.297 120.916 38.244 120.232 37.884C119.549 37.524 119.081 36.836 118.83 35.821L118.175 33.174L117.023 33.459L116.512 31.394L117.664 31.109L117.154 29.051L119.921 28.366L120.43 30.424L122.231 29.979L122.742 32.044L120.941 32.489L121.59 35.11C121.662 35.402 121.793 35.606 121.984 35.722C122.174 35.839 122.393 35.867 122.64 35.806C122.944 35.73 123.207 35.579 123.427 35.351ZM129.749 27.365L132.338 26.553L131.528 35.669C131.463 36.419 131.316 37.037 131.089 37.525C130.861 38.014 130.559 38.402 130.182 38.689C129.78 38.989 129.329 39.2164 128.849 39.361C128.432 39.4907 127.998 39.5574 127.561 39.559C127.109 39.562 126.715 39.498 126.378 39.365L126.729 37.161C127.195 37.353 127.642 37.382 128.071 37.247C128.336 37.164 128.535 37.043 128.668 36.885C128.802 36.726 128.887 36.515 128.923 36.251L123.14 29.441L125.931 28.565L129.317 32.704L129.749 27.365Z" fill="white"/>
<defs>
<filter id="filter0_d_315_414" x="0" y="0" width="170.207" height="63.6812" filterUnits="userSpaceOnUse" color-interpolation-filters="sRGB">
<feFlood flood-opacity="0" result="BackgroundImageFix"/>
<feColorMatrix in="SourceAlpha" type="matrix" values="0 0 0 0 0 0 0 0 0 0 0 0 0 0 0 0 0 0 127 0" result="hardAlpha"/>
<feOffset dy="4"/>
<feComposite in2="hardAlpha" operator="out"/>
<feColorMatrix type="matrix" values="0 0 0 0 0.815686 0 0 0 0 0.207843 0 0 0 0 0.388235 0 0 0 0.25 0"/>
<feBlend mode="normal" in2="BackgroundImageFix" result="effect1_dropShadow_315_414"/>
<feBlend mode="normal" in="SourceGraphic" in2="effect1_dropShadow_315_414" result="shape"/>
</filter>
</defs>
</svg>
