<svg width="85" height="119" viewBox="0 0 85 119" fill="none" xmlns="http://www.w3.org/2000/svg"><path d="M18.471 113.005c2.702 3.496 7.742 4.155 11.09 1.271A150.193 150.193 0 0 0 81.455 9.006c.25-4.412-3.342-8.008-7.76-8.022L47.804.898c-4.419-.015-7.982 3.56-8.322 7.965A108.29 108.29 0 0 1 3.886 81.07C.6 84.02-.066 89.023 2.636 92.519l15.835 20.486z" fill="#3CD088" fill-opacity=".83" shape-rendering="crispEdges" filter="url(#a)"/><g clip-path="url(#b)" fill="#fff"><path d="M28.468 91.991l-6.93-6.483 1.836-1.962 5.377 5.03 3.09-3.302 1.553 1.452-4.926 5.265zM36.407 77.223c.102.083.21.182.324.296.048.05.096.096.14.138l-3.366 4.14c.77.304 1.454.087 2.053-.65.228-.28.385-.555.47-.825.084-.27.118-.568.102-.893l1.95-.162c.086.52.043 1.045-.129 1.575s-.478 1.067-.919 1.608c-.549.676-1.156 1.16-1.821 1.454-.665.293-1.332.397-2 .31-.67-.085-1.287-.359-1.854-.82-.574-.467-.97-1.016-1.19-1.647a3.68 3.68 0 0 1-.128-1.963c.134-.676.445-1.314.933-1.913.342-.421.729-.763 1.16-1.026a3.645 3.645 0 0 1 1.363-.504c.477-.073.964-.04 1.46.099s.98.4 1.452.783zm-4.008 1.793c-.251.309-.373.636-.365.981.008.346.138.672.392.978l1.897-2.332c-.347-.192-.69-.256-1.031-.192-.341.064-.639.253-.893.565zM36.185 71.401l.136.097 1.014-1.418 1.564 1.118-.975 1.363 4.19 2.997-1.499 2.095-4.19-2.997-.623.872-1.564-1.118.624-.872-.156-.111c-.477-.342-.826-.736-1.044-1.183a2.444 2.444 0 0 1-.223-1.436c.07-.51.296-1.033.679-1.568.181-.254.386-.486.612-.698a2.54 2.54 0 0 1 .686-.471l1.11 1.573c-.26.117-.47.286-.628.506-.157.22-.215.437-.172.65.042.212.196.412.46.601zM44.733 67.851l1.86.449c-.006.265-.064.549-.177.85-.112.302-.26.595-.442.877-.514.793-1.107 1.283-1.78 1.469-.674.185-1.407.021-2.2-.492l-2.069-1.34-.583.9-1.614-1.045.583-.9-1.608-1.041 1.4-2.163 1.608 1.042.911-1.407 1.614 1.045-.911 1.407 2.048 1.326c.228.147.44.2.638.16a.749.749 0 0 0 .484-.35c.154-.239.233-.5.238-.787zM41.626 60.972c.572.342.94.75 1.103 1.226.163.475.144.995-.059 1.557l-.597-.356c.105-.442.059-.816-.138-1.124a1.212 1.212 0 0 0-.448-.399l-.533.892-1.494-.893.968-1.62 1.198.717zM51.423 60.608a7.83 7.83 0 0 1-1.035 1.509c-.399.454-.784.791-1.157 1.013l-1.197-1.505c.348-.211.683-.49 1.003-.836a5.26 5.26 0 0 0 .795-1.113c.201-.382.302-.668.3-.859 0-.191-.07-.323-.208-.396-.105-.056-.216-.047-.331.027a1.543 1.543 0 0 0-.361.346c-.125.157-.26.338-.407.544-.184.27-.39.543-.614.819a3.832 3.832 0 0 1-.75.707 1.928 1.928 0 0 1-.921.35c-.338.037-.713-.053-1.123-.27a2.033 2.033 0 0 1-.907-.947c-.198-.416-.267-.91-.206-1.482.061-.572.271-1.197.63-1.876.24-.454.529-.887.865-1.3a4.707 4.707 0 0 1 1.04-.97l1.187 1.5a4.22 4.22 0 0 0-.884.767 4.683 4.683 0 0 0-.584.848c-.204.384-.302.679-.293.883.008.204.072.338.192.402.112.06.228.052.346-.023.119-.074.243-.19.373-.35.13-.158.27-.343.418-.552.186-.264.393-.532.62-.802.226-.27.476-.502.75-.694.274-.192.578-.306.913-.343.336-.036.705.052 1.108.265.4.212.697.524.892.936.196.412.261.907.198 1.485-.064.577-.281 1.216-.652 1.917zM50.832 43.675c.216-.533.516-.97.899-1.308a2.512 2.512 0 0 1 1.394-.61c.545-.066 1.17.043 1.875.328l3.895 1.578-.967 2.387-3.507-1.42c-.491-.2-.887-.243-1.187-.132-.3.111-.52.34-.66.687a1.552 1.552 0 0 0-.114.758c.027.25.135.483.324.7.19.216.473.4.85.553l3.29 1.333-.968 2.387-9.32-3.775.967-2.388 3.141 1.273c-.267-.764-.237-1.548.088-2.351zM60.9 37.864c-.243.763-.614 1.393-1.114 1.89-.5.496-1.078.828-1.733.998-.655.169-1.335.142-2.04-.082-.704-.224-1.273-.593-1.707-1.108a3.733 3.733 0 0 1-.828-1.811c-.118-.693-.056-1.42.186-2.184.245-.772.615-1.405 1.11-1.9a3.695 3.695 0 0 1 1.719-.994c.65-.167 1.327-.138 2.032.086.705.223 1.276.591 1.715 1.103.439.512.72 1.114.843 1.806s.062 1.424-.183 2.196zm-1.95-.62c.088-.277.102-.549.042-.814-.06-.264-.196-.5-.406-.707-.21-.207-.493-.367-.85-.48-.356-.113-.677-.145-.962-.095-.285.05-.528.165-.728.347-.2.183-.344.413-.432.69a1.528 1.528 0 0 0-.044.811c.059.262.19.498.393.707.203.208.483.37.84.482.355.114.68.144.972.093a1.47 1.47 0 0 0 .74-.347 1.51 1.51 0 0 0 .435-.686zM62.555 31.91l-9.73-2.543.652-2.492 9.73 2.543-.652 2.492zM54.908 19.878l.505-2.526 9.862 1.97-.48 2.404-.72-.143c.465.59.604 1.352.418 2.282a3.633 3.633 0 0 1-.813 1.695c-.411.477-.928.819-1.55 1.026-.621.206-1.315.233-2.08.08-.765-.152-1.393-.443-1.883-.872a3.403 3.403 0 0 1-1.025-1.54 3.67 3.67 0 0 1-.094-1.876 3.4 3.4 0 0 1 .408-1.096c.188-.313.432-.562.734-.75l-3.282-.654zm7.685 3.055c.057-.286.04-.555-.05-.808a1.458 1.458 0 0 0-.481-.655c-.231-.185-.53-.314-.897-.387-.367-.073-.689-.068-.967.014a1.449 1.449 0 0 0-.685.423 1.512 1.512 0 0 0-.352.727c-.058.286-.043.558.045.814.087.256.243.474.469.656.225.18.521.308.888.381.367.074.692.07.976-.009.284-.08.516-.22.697-.423.18-.203.3-.447.357-.733z"/></g><defs><filter id="a" x=".958" y=".898" width="83.511" height="117.19" filterUnits="userSpaceOnUse" color-interpolation-filters="sRGB"><feFlood flood-opacity="0" result="BackgroundImageFix"/><feColorMatrix in="SourceAlpha" values="0 0 0 0 0 0 0 0 0 0 0 0 0 0 0 0 0 0 127 0" result="hardAlpha"/><feOffset dx="3" dy="2"/><feComposite in2="hardAlpha" operator="out"/><feColorMatrix values="0 0 0 0 0.388235 0 0 0 0 0.854902 0 0 0 0 0.631373 0 0 0 0.25 0"/><feBlend in2="BackgroundImageFix" result="effect1_dropShadow_308_385"/><feBlend in="SourceGraphic" in2="effect1_dropShadow_308_385" result="shape"/></filter><clipPath id="b"><path fill="#fff" transform="rotate(-6.871 191.689 -103.07)" d="M0 0h52.418v71.397H0z"/></clipPath></defs></svg>