<svg width="85" height="118" viewBox="0 0 85 118" fill="none" xmlns="http://www.w3.org/2000/svg"><path d="M11.337.86C6.92.902 3.35 4.52 3.627 8.93A150.183 150.183 0 0 0 56.17 113.878c3.364 2.864 8.4 2.174 11.08-1.339l15.71-20.582c2.68-3.513 1.983-8.511-1.321-11.444A108.29 108.29 0 0 1 45.6 8.53C45.23 4.126 41.646.573 37.228.615L11.337.86z" fill="#3CD088" fill-opacity=".83" shape-rendering="crispEdges" filter="url(#a)"/><g clip-path="url(#b)" fill="#fff"><path d="M20.596 21.896l2.152-1.96-.194-1.376-2.38.333-.356-2.533 8.964-1.252.575 4.089c.114.813.079 1.536-.105 2.167-.185.632-.502 1.145-.954 1.537-.45.393-1.018.637-1.7.733-.66.092-1.25.02-1.77-.218-.52-.237-.956-.616-1.305-1.136l-2.547 2.323-.38-2.707zm5.642-.818c.415-.058.72-.234.917-.528.196-.294.257-.702.184-1.225l-.198-1.406-2.625.367.198 1.406c.073.523.244.898.511 1.128.268.229.605.315 1.013.258zM29.24 26.134c-.09-.44-.037-.82.157-1.138.193-.318.47-.514.832-.586.36-.073.691 0 .991.22.3.218.495.548.584.989.09.444.045.823-.136 1.137a1.16 1.16 0 0 1-.812.58c-.38.076-.722.006-1.026-.21-.303-.217-.5-.547-.59-.992zm-7.871.333l6.867-1.381.486 2.403-6.868 1.38-.485-2.402zM30.498 34.436l.593 2.258-5.538 1.446c-.857.223-1.605.252-2.244.085a3.027 3.027 0 0 1-1.604-1.03c-.43-.52-.755-1.2-.975-2.04a7.701 7.701 0 0 1-.261-1.909c-.004-.625.086-1.186.272-1.683l1.887.429a3.35 3.35 0 0 0-.254 1.2c-.018.449.026.874.131 1.275.167.635.428 1.06.784 1.272.355.212.798.249 1.329.11l.222-.057c-.657-.342-1.098-.943-1.323-1.801a3.591 3.591 0 0 1-.034-1.762 3.234 3.234 0 0 1 .82-1.508c.41-.433.95-.736 1.616-.91.664-.174 1.28-.172 1.849.005a3.252 3.252 0 0 1 1.452.916c.4.433.678.95.835 1.552.123.465.154.897.094 1.294-.06.398-.218.755-.475 1.073l.825-.215zm-4.946-.376c.11.423.33.74.66.952.328.211.7.263 1.113.155.413-.108.709-.334.888-.677.18-.344.213-.728.102-1.152-.112-.427-.331-.749-.657-.965-.326-.216-.696-.27-1.109-.162-.413.108-.71.336-.893.685-.182.348-.216.736-.104 1.164zM33.263 42.714a3.26 3.26 0 0 1 .172 1.501c-.064.483-.271.919-.622 1.308-.35.389-.869.7-1.555.936l-3.79 1.3-.8-2.32 3.414-1.17c.478-.163.79-.379.936-.646.146-.267.162-.569.046-.905a1.476 1.476 0 0 0-.393-.616 1.201 1.201 0 0 0-.672-.3c-.271-.037-.59.007-.957.133l-3.202 1.097-.799-2.319 9.072-3.109.798 2.319-3.057 1.048c.67.382 1.14.963 1.409 1.743zM31.852 53.024l-1.351 1.225a2.488 2.488 0 0 1-.577-.594 4.27 4.27 0 0 1-.454-.818c-.35-.828-.42-1.557-.205-2.187.215-.629.737-1.118 1.567-1.468l2.166-.913-.398-.94 1.69-.711.397.94 1.684-.71.956 2.26-1.684.709.622 1.47-1.69.711-.621-1.47-2.145.903c-.238.1-.394.24-.468.417a.711.711 0 0 0 .018.569c.105.248.27.451.493.607zM38.947 54.262c-.576.267-1.095.338-1.558.212-.462-.125-.861-.418-1.197-.879l.601-.279c.293.319.613.482.96.492.204-.002.39-.048.556-.14l-.419-.896 1.506-.7.76 1.629-1.209.56zM33.985 62.163a7.448 7.448 0 0 1-.636-1.622c-.146-.556-.206-1.04-.18-1.452l1.829-.139c-.02.387.02.8.122 1.237.102.437.253.844.453 1.22.193.363.365.595.517.697.151.1.293.117.424.047.1-.053.153-.145.157-.275a1.466 1.466 0 0 0-.08-.47 11.809 11.809 0 0 0-.212-.61c-.114-.29-.22-.597-.318-.922a3.64 3.64 0 0 1-.156-.97 1.832 1.832 0 0 1 .217-.911c.151-.286.423-.533.814-.74a1.943 1.943 0 0 1 1.233-.209c.434.067.861.277 1.28.63.419.354.8.854 1.144 1.5.23.431.417.89.562 1.375.145.486.215.931.21 1.337l-1.82.134c.005-.4-.04-.77-.132-1.106a4.447 4.447 0 0 0-.356-.913c-.195-.366-.375-.6-.54-.703-.166-.103-.306-.124-.42-.064-.108.057-.164.152-.168.285-.005.133.02.294.076.481.055.188.126.396.213.625.108.287.209.593.3.916.093.323.142.644.147.962.005.318-.068.619-.219.903-.15.283-.418.527-.802.73a1.91 1.91 0 0 1-1.216.203c-.43-.067-.856-.28-1.278-.638-.422-.36-.81-.872-1.165-1.538zM47.67 70.75c.304.454.488.923.55 1.406.062.483-.026.958-.266 1.423-.239.466-.66.9-1.262 1.302l-3.332 2.224-1.366-2.038 3-2.002c.42-.28.666-.568.739-.864.072-.296.01-.591-.189-.887a1.479 1.479 0 0 0-.537-.495 1.203 1.203 0 0 0-.726-.119c-.273.034-.57.158-.892.373l-2.814 1.878-1.366-2.037 7.972-5.322 1.366 2.038-2.686 1.793c.745.198 1.348.64 1.808 1.326zM46.86 81.785c-.472-.6-.77-1.229-.893-1.888A3.575 3.575 0 0 1 46.108 78c.218-.606.604-1.127 1.158-1.562.554-.435 1.15-.685 1.79-.751a3.569 3.569 0 0 1 1.872.317c.61.278 1.151.716 1.624 1.315.477.606.778 1.236.904 1.892a3.51 3.51 0 0 1-.138 1.884c-.217.6-.602 1.118-1.157 1.553-.554.435-1.15.688-1.79.76a3.559 3.559 0 0 1-1.877-.303c-.612-.274-1.156-.713-1.633-1.319zm1.534-1.204c.172.219.379.375.62.47.241.093.5.113.776.058s.554-.192.834-.412c.28-.22.477-.455.59-.706.115-.251.153-.504.117-.76a1.469 1.469 0 0 0-.313-.709 1.458 1.458 0 0 0-.616-.468 1.398 1.398 0 0 0-.768-.069c-.274.048-.55.182-.83.402-.281.22-.48.459-.595.717a1.398 1.398 0 0 0-.123.768c.033.255.136.491.308.71zM50.662 86.266l7.226-6.294 1.616 1.847-7.226 6.294-1.616-1.847zM64.255 86.701l1.72 1.751-6.85 6.7-1.638-1.667.5-.489c-.716.048-1.39-.25-2.024-.895a3.46 3.46 0 0 1-.899-1.548 3.266 3.266 0 0 1 .024-1.769c.17-.6.522-1.16 1.053-1.68.532-.52 1.099-.857 1.7-1.013a3.254 3.254 0 0 1 1.764.02c.575.169 1.085.48 1.529.932.285.29.5.593.645.909.146.315.211.641.197.978l2.279-2.229zm-6.536 4.405c.194.199.416.33.663.395.247.065.506.055.775-.028.27-.083.532-.249.787-.498.254-.249.424-.505.508-.768.084-.263.096-.518.035-.765a1.44 1.44 0 0 0-.384-.667 1.476 1.476 0 0 0-.666-.401 1.354 1.354 0 0 0-.769.017c-.264.08-.523.245-.778.494-.254.25-.427.507-.517.772-.09.266-.103.525-.04.776.062.25.19.475.386.673z"/></g><defs><filter id="a" x=".611" y=".615" width="83.997" height="117.045" filterUnits="userSpaceOnUse" color-interpolation-filters="sRGB"><feFlood flood-opacity="0" result="BackgroundImageFix"/><feColorMatrix in="SourceAlpha" values="0 0 0 0 0 0 0 0 0 0 0 0 0 0 0 0 0 0 127 0" result="hardAlpha"/><feOffset dx="-3" dy="2"/><feComposite in2="hardAlpha" operator="out"/><feColorMatrix values="0 0 0 0 0.388235 0 0 0 0 0.854902 0 0 0 0 0.631373 0 0 0 0.25 0"/><feBlend in2="BackgroundImageFix" result="effect1_dropShadow_306_226"/><feBlend in="SourceGraphic" in2="effect1_dropShadow_306_226" result="shape"/></filter><clipPath id="b"><path fill="#fff" transform="rotate(2.734 -280.256 424.604)" d="M0 0h50v80H0z"/></clipPath></defs></svg>