<svg width="172" height="65" viewBox="0 0 172 65" fill="none" xmlns="http://www.w3.org/2000/svg">
<g filter="url(#filter0_d_246_940)">
<path d="M2.34203 25.8251C-0.241972 29.4091 0.559026 34.4291 4.27603 36.8181C28.6625 52.4942 57.0649 60.7773 86.0551 60.6674C115.045 60.5576 143.384 52.0596 167.651 36.1991C171.349 33.7821 172.112 28.7561 169.501 25.1921L154.201 4.30307C151.59 0.738073 146.598 -0.00692129 142.851 2.33408C125.765 13.0056 106.041 18.6995 85.896 18.7759C65.7512 18.8522 45.9845 13.3078 28.818 2.76606C25.053 0.454055 20.067 1.23708 17.483 4.82108L2.34203 25.8251Z" fill="#D43E70"/>
</g>
<mask id="mask0_246_940" style="mask-type:luminance" maskUnits="userSpaceOnUse" x="44" y="25" width="86" height="26">
<path d="M129.375 28.5483L128.568 50.5335L44.6243 47.4511L45.4316 25.4659L129.375 28.5483Z" fill="white"/>
</mask>
<g mask="url(#mask0_246_940)">
<path d="M121.211 32.5171C121.455 32.4441 121.702 32.4071 121.954 32.4071C123.064 32.4051 124.118 32.4181 125.116 32.4451C126.114 32.4721 126.841 32.4951 127.298 32.5141C127.489 32.5191 127.597 32.5221 127.621 32.5241L128.756 35.0871C128.232 35.7631 127.653 36.3949 127.025 36.9761C126.419 37.5331 125.581 38.0731 124.511 38.5941C123.441 39.1161 121.889 39.6821 119.857 40.2941L118.952 37.3131C120.306 36.9051 121.579 36.4961 122.773 36.0841C123.966 35.6731 124.837 35.2821 125.386 34.9131L124.839 34.9071C124.475 34.9021 124.056 34.8991 123.583 34.8971C123.11 34.8941 122.688 34.8941 122.319 34.8961C122.266 34.8983 122.214 34.907 122.163 34.9221C122.105 34.9386 122.052 34.9708 122.011 35.0152C121.969 35.0597 121.941 35.1147 121.929 35.1741C121.889 35.3506 121.865 35.5303 121.859 35.7111L119.173 35.8221C119.142 34.7581 119.436 33.8961 120.053 33.2361C120.394 32.8861 120.78 32.6471 121.211 32.5171ZM121.738 29.9371L120.668 31.9191L118.689 30.8551L119.75 28.8701L121.738 29.9371Z" fill="white"/>
<path d="M119.445 37.1893L120.17 40.2263L119.58 40.3673C119.235 40.4557 118.88 40.4934 118.524 40.4793C118.017 40.4575 117.523 40.3104 117.086 40.0513C116.896 39.9343 116.72 39.7949 116.563 39.6363C116.364 39.4348 116.192 39.2082 116.052 38.9623C115.876 38.6525 115.748 38.3181 115.671 37.9703L115.242 36.1733C114.884 34.6722 114.528 33.1706 114.174 31.6683L114.071 31.2373L116.784 30.5903L118.316 37.0093C118.353 37.1643 118.43 37.2613 118.547 37.3013C118.664 37.3413 118.762 37.3523 118.842 37.3333L119.445 37.1893ZM113.061 31.4693L114.419 38.1513L114.42 38.1573C114.438 38.2463 114.457 38.4183 114.475 38.6713C114.494 38.9417 114.483 39.2132 114.444 39.4813C114.365 39.9299 114.187 40.3554 113.924 40.7273C113.389 41.4523 112.629 41.9143 111.644 42.1133L111.116 42.2203L110.492 39.1673L111.02 39.0603C111.288 39.0063 111.474 38.9173 111.579 38.7943C111.616 38.736 111.634 38.6682 111.633 38.5993C111.635 38.5292 111.629 38.4592 111.615 38.3904L110.328 32.0213L113.061 31.4693Z" fill="white"/>
<path d="M99.8799 38.5004L102.522 39.3574C102.167 40.4524 102.039 41.3644 102.139 42.0944C102.219 42.6794 102.437 43.1164 102.793 43.4054C103.149 43.6934 103.635 43.7954 104.252 43.7114L106.049 43.4664C106.392 43.4194 106.678 43.3684 106.909 43.3144C107.141 43.2594 107.33 43.2054 107.479 43.1504C107.627 43.0954 107.741 43.0454 107.82 43.0004C107.894 42.9606 107.962 42.9108 108.023 42.8524C107.717 42.7582 107.401 42.7021 107.082 42.6854C106.711 42.6627 106.339 42.6537 105.967 42.6584C105.827 42.659 105.686 42.6577 105.546 42.6544L105.168 39.8844L111.342 39.0414L111.763 42.1214L110.527 42.2904C110.567 42.4174 110.596 42.5464 110.614 42.6774C110.696 43.2764 110.654 43.7864 110.49 44.2084C110.336 44.6137 110.087 44.976 109.763 45.2644C109.444 45.5458 109.083 45.775 108.693 45.9434C108.312 46.1102 107.916 46.2404 107.511 46.3324C107.117 46.4204 106.769 46.4854 106.467 46.5264L104.67 46.7714C103.86 46.8824 103.142 46.8364 102.518 46.6324C101.921 46.4448 101.375 46.1256 100.918 45.6984C100.476 45.2803 100.118 44.7813 99.8639 44.2284C99.6054 43.6731 99.4318 43.0822 99.3489 42.4754C99.2749 41.9304 99.2819 41.3004 99.3699 40.5864C99.4577 39.8735 99.6289 39.1733 99.8799 38.5004ZM93.7889 37.9854L93.9269 38.6054L94.2429 40.0434C94.3239 40.3954 94.3689 40.7214 94.3799 41.0214C94.3849 41.1754 94.3809 41.3234 94.3679 41.4654C94.3387 41.7598 94.2815 42.0508 94.1969 42.3344C94.1243 42.6052 94.0026 42.8604 93.8379 43.0874C93.5269 43.5173 93.1014 43.8513 92.6099 44.0514C92.2279 44.1874 91.7739 44.2644 91.2469 44.2834L89.5499 44.3424L89.4409 41.2354L91.1379 41.1764C91.3059 41.1704 91.4189 41.1444 91.4759 41.0994C91.5339 41.0544 91.5609 40.9864 91.5579 40.8954C91.5532 40.8151 91.5411 40.7355 91.5219 40.6574L91.1189 38.8984L93.7889 37.9854ZM93.4399 46.3144L91.9009 47.9574L90.2579 46.4264L91.7899 44.7754L93.4399 46.3144Z" fill="white"/>
<path d="M89.8991 41.2361L89.8911 44.3592L89.2851 44.3582C88.9292 44.3628 88.5745 44.316 88.2321 44.2191C87.7445 44.0784 87.2991 43.8198 86.9351 43.4662C86.7773 43.3075 86.639 43.1306 86.5231 42.9391C86.3773 42.6968 86.2634 42.4367 86.1841 42.1652C86.0866 41.8225 86.0404 41.4673 86.0471 41.1111L86.0521 39.2632C86.0541 38.4042 86.0571 37.5392 86.0621 36.6692L86.0701 34.6342L86.0711 34.1912L88.8601 34.1982L88.8431 40.7971C88.8431 40.9571 88.8951 41.0692 88.9991 41.1352C89.1041 41.2022 89.1971 41.2351 89.2791 41.2351L89.8991 41.2361ZM85.0811 39.0471L84.9321 42.7051C84.9036 43.4374 84.7754 44.1625 84.5511 44.8601C84.3271 45.5561 84.0231 46.1011 83.6381 46.4951C83.1814 46.9752 82.6107 47.332 81.9791 47.5322C81.3561 47.7392 80.6561 47.8262 79.8801 47.7952L79.2121 47.7672L79.3391 44.6541L80.0071 44.6812C80.7831 44.7132 81.3261 44.5692 81.6351 44.2502C81.8211 44.0392 81.9491 43.7761 82.0181 43.4601C82.0881 43.1441 82.1281 42.8552 82.1391 42.5922L82.2881 38.9332L85.0811 39.0471ZM85.3981 36.6442L83.7391 38.1671L82.2161 36.5152L83.8691 34.9851L85.3981 36.6442ZM78.3501 36.5572C78.5901 36.5832 78.8291 36.6321 79.0681 36.7021C79.3081 36.7711 79.5481 36.8542 79.7891 36.9492L78.7871 39.5551C78.4932 39.4037 78.1738 39.3081 77.8451 39.2732C77.579 39.2431 77.3096 39.2655 77.0521 39.3391C76.7794 39.4199 76.5337 39.573 76.3411 39.7822C76.1291 40.0032 75.9601 40.3152 75.8331 40.7172C76.2361 40.8762 76.5931 41.0161 76.9051 41.1371C77.4231 41.3321 77.8281 41.4951 78.1201 41.6281C78.4851 41.7971 78.7341 42.0282 78.8661 42.3212C78.9981 42.6152 79.0431 42.9542 79.0011 43.3382L78.9981 43.3651C78.9061 44.1181 78.7391 44.7441 78.4991 45.2411C78.2591 45.7381 77.9711 46.1311 77.6351 46.4211C77.3204 46.6988 76.9555 46.9136 76.5601 47.0541C76.1957 47.182 75.8155 47.2587 75.4301 47.2822C75.0904 47.3037 74.7496 47.297 74.4111 47.2621L72.3371 47.0331C71.5731 46.9491 70.9291 46.7382 70.4041 46.4012C69.9007 46.0862 69.4729 45.6642 69.1511 45.1652C68.845 44.6878 68.6291 44.1584 68.5141 43.6031C68.4006 43.0764 68.3712 42.5351 68.4271 41.9991C68.5201 41.1541 68.7061 40.4021 68.9851 39.7451C69.2631 39.0871 69.6001 38.4562 69.9961 37.8502L72.3491 39.3452C72.0511 39.8102 71.8011 40.2651 71.6011 40.7101C71.4011 41.1541 71.2771 41.5951 71.2291 42.0341C71.1761 42.5171 71.2121 42.8932 71.3381 43.1602C71.4641 43.4282 71.6481 43.6201 71.8911 43.7361C72.1351 43.8521 72.4031 43.9262 72.6971 43.9592L74.7711 44.1881C75.1371 44.2281 75.4221 44.2191 75.6281 44.1621C75.8331 44.1051 75.9811 44.0282 76.0711 43.9332C76.1496 43.8618 76.2023 43.7665 76.2211 43.6621C76.0582 43.597 75.8949 43.533 75.7311 43.4702L74.7181 43.0771L73.7091 42.6852L73.2681 42.5132L73.2301 42.2372C73.1991 41.9959 73.1791 41.7533 73.1701 41.5102C73.156 41.1831 73.168 40.8553 73.2061 40.5302C73.2481 40.1512 73.3341 39.7672 73.4631 39.3792C73.5481 39.1449 73.657 38.9201 73.7881 38.7082C73.9421 38.4462 74.1471 38.1762 74.4021 37.8982C74.6571 37.6192 74.9701 37.3671 75.3431 37.1411C75.7482 36.9017 76.1886 36.7279 76.6481 36.6262C77.1461 36.5102 77.7131 36.4872 78.3501 36.5572ZM57.8211 34.3582L58.6061 32.1082L65.0151 30.7231L65.6051 33.4551L61.2161 34.4091C61.2981 34.5431 61.3881 34.6862 61.4851 34.8372C61.7121 35.1852 61.9641 35.5861 62.2411 36.0421C62.2921 36.1281 62.3421 36.2091 62.3911 36.2841C62.5831 36.5961 62.7451 36.8772 62.8771 37.1272C63.0081 37.3762 63.1041 37.6292 63.1651 37.8842C63.2421 38.2312 63.2731 38.5402 63.2551 38.8112C63.2322 39.1136 63.1765 39.4127 63.0891 39.7032C63.0471 39.8522 62.9381 40.0611 62.7631 40.3301C62.6311 40.5291 62.4211 40.7242 62.1331 40.9142C61.8451 41.1052 61.4561 41.2332 60.9671 41.2982C60.4381 41.3592 59.7931 41.3071 59.0341 41.1411L55.4971 40.3691L56.1621 37.3252L59.6991 38.0971C59.9925 38.1602 60.288 38.2132 60.5851 38.2562C60.2653 37.6673 59.9093 37.0988 59.5191 36.5541C59.1701 36.0597 58.807 35.5755 58.4301 35.1021C58.2365 34.8571 58.0392 34.6151 57.8381 34.3762L57.8211 34.3582Z" fill="white"/>
<path d="M55.879 36.6733C55.774 37.0173 55.885 37.2383 56.212 37.3373L56.701 37.4853L55.798 40.4613L55.309 40.3123C55.141 40.2619 54.9766 40.2001 54.817 40.1273C54.6816 40.5549 54.462 40.951 54.171 41.2923C53.8865 41.6565 53.5317 41.9598 53.1277 42.1842C52.7236 42.4086 52.2786 42.5494 51.819 42.5983C51.3879 42.6493 50.9521 42.6453 50.522 42.5863C50.1169 42.5325 49.7167 42.4469 49.325 42.3303L48.555 42.0963C47.815 41.8723 47.211 41.5823 46.742 41.2263C46.273 40.8693 45.915 40.4753 45.669 40.0413C45.4285 39.6233 45.2621 39.1669 45.177 38.6923C45.0951 38.2096 45.1002 37.7162 45.192 37.2353C45.253 36.9073 45.323 36.6133 45.403 36.3523C45.445 36.2133 45.489 36.0813 45.536 35.9583C45.899 34.9993 46.537 33.9913 47.451 32.9343L49.559 34.7703C48.862 35.5653 48.394 36.2863 48.155 36.9313L48.146 36.9633C48.123 37.0233 48.1 37.0893 48.078 37.1633C48.055 37.2373 48.028 37.3433 47.996 37.4813C47.963 37.6183 47.973 37.7913 48.024 37.9993C48.075 38.2063 48.208 38.4083 48.424 38.6043C48.64 38.8013 48.985 38.9713 49.459 39.1143L50.229 39.3483C50.673 39.4833 51.028 39.5463 51.293 39.5393C51.559 39.5323 51.763 39.4823 51.905 39.3903C52.0372 39.3087 52.1441 39.192 52.214 39.0533C52.266 38.9453 52.308 38.8393 52.339 38.7343L53.683 34.3043L56.352 35.1143L55.879 36.6733ZM53.325 33.5833L51.337 34.6403L50.278 32.6583L52.262 31.5933L53.325 33.5833Z" fill="white"/>
</g>
<defs>
<filter id="filter0_d_246_940" x="0.835449" y="0.987305" width="170.208" height="63.6812" filterUnits="userSpaceOnUse" color-interpolation-filters="sRGB">
<feFlood flood-opacity="0" result="BackgroundImageFix"/>
<feColorMatrix in="SourceAlpha" type="matrix" values="0 0 0 0 0 0 0 0 0 0 0 0 0 0 0 0 0 0 127 0" result="hardAlpha"/>
<feOffset dy="4"/>
<feComposite in2="hardAlpha" operator="out"/>
<feColorMatrix type="matrix" values="0 0 0 0 0.831373 0 0 0 0 0.243137 0 0 0 0 0.439216 0 0 0 0.25 0"/>
<feBlend mode="normal" in2="BackgroundImageFix" result="effect1_dropShadow_246_940"/>
<feBlend mode="normal" in="SourceGraphic" in2="effect1_dropShadow_246_940" result="shape"/>
</filter>
</defs>
</svg>
