<svg width="84" height="118" viewBox="0 0 84 118" fill="none" xmlns="http://www.w3.org/2000/svg">
<g filter="url(#filter0_d_246_928)">
<path d="M17.5133 112.108C20.2153 115.603 25.2553 116.262 28.6023 113.378C43.877 100.214 56.3441 84.1089 65.2602 66.0228C74.1763 47.9367 79.3587 28.2402 80.4983 8.10804C80.7483 3.69604 77.1563 0.10004 72.7383 0.0860395L46.8453 4.09904e-05C42.4273 -0.013959 38.8643 3.56004 38.5243 7.96604C36.3774 35.714 23.6305 61.5705 2.92833 80.171C-0.358671 83.123 -1.02467 88.126 1.67833 91.622L17.5133 112.108Z" fill="#3CD088" fill-opacity="0.83" shape-rendering="crispEdges"/>
</g>
<mask id="mask0_246_928" style="mask-type:luminance" maskUnits="userSpaceOnUse" x="25" y="29" width="45" height="54">
<path d="M25.521 35.2168L62.0675 29.4415L69.5598 76.8531L33.0133 82.6285L25.521 35.2168Z" fill="white"/>
</mask>
<g mask="url(#mask0_246_928)">
<path d="M50.5441 36.8261C50.6131 36.5811 50.7151 36.3521 50.8511 36.1401C51.4451 35.2021 52.0211 34.3201 52.5801 33.4921C53.1381 32.6651 53.5481 32.0641 53.8101 31.6891C53.9161 31.5301 53.9761 31.4401 53.9911 31.4211L56.7631 31.8391C57.0611 32.6791 57.2821 33.5031 57.4271 34.3141C57.5721 35.1241 57.5781 36.1211 57.4431 37.3041C57.3091 38.4871 56.9541 40.1001 56.3801 42.1431L53.3781 41.3061C53.7611 39.9451 54.0991 38.6511 54.3921 37.4231C54.6861 36.1951 54.8241 35.2511 54.8071 34.5901L54.5081 35.0471C54.0494 35.751 53.5958 36.458 53.1471 37.1681C53.1203 37.214 53.0995 37.2631 53.0851 37.3141C53.0674 37.3721 53.0662 37.4339 53.0815 37.4925C53.0969 37.5511 53.1282 37.6043 53.1721 37.6461C53.2641 37.7451 53.4031 37.8611 53.5871 37.9931L52.2391 40.3201C51.3251 39.7751 50.7551 39.0641 50.5291 38.1891C50.4177 37.741 50.4229 37.2718 50.5441 36.8261ZM60.5941 38.3141L62.2781 37.3641L63.2261 39.0541L61.5381 39.9961L60.5941 38.3141ZM58.0011 39.2491L59.8451 38.2091L60.8821 40.0591L59.0341 41.0911L58.0011 39.2491ZM58.8671 36.1711L60.7101 35.1311L61.7481 36.9811L59.9001 38.0121L58.8671 36.1711Z" fill="white"/>
<path d="M50.9832 41.5022L52.7192 42.1142C52.8262 42.1522 52.9122 42.1563 52.9782 42.1263C53.0442 42.0963 53.1102 41.9872 53.1772 41.7982L53.5282 40.8022L56.4612 41.8362L56.1272 42.7812C56.0151 43.1019 55.855 43.4037 55.6522 43.6763C55.4571 43.941 55.2278 44.1787 54.9702 44.3833C55.0792 44.7013 55.1182 45.0272 55.0882 45.3602C55.0572 45.6942 54.9562 46.1032 54.7852 46.5872L54.0252 48.7422L51.0932 47.7083L51.9192 45.3672C51.9932 45.1572 52.0192 45.0123 51.9962 44.9323C51.9742 44.8523 51.9052 44.7912 51.7892 44.7502L50.0532 44.1382L50.9832 41.5022ZM57.9862 46.3062L59.7272 45.4673L60.5642 47.2162L58.8182 48.0462L57.9862 46.3062ZM55.3372 47.0712L57.2442 46.1532L58.1602 48.0672L56.2492 48.9762L55.3372 47.0712ZM56.4012 44.0562L58.3082 43.1382L59.2242 45.0513L57.3122 45.9603L56.4012 44.0562Z" fill="white"/>
<path d="M42.9772 58.9681L44.8062 56.8571L45.1382 57.1161C45.3592 57.2891 45.6162 57.4871 45.9092 57.7101C46.0032 57.7881 46.0922 57.8461 46.1742 57.8841C46.2572 57.9211 46.3342 57.9281 46.4052 57.9031C46.4772 57.8781 46.5422 57.7991 46.6032 57.6671L49.3112 51.7151C49.4412 51.4301 49.4712 51.2111 49.4002 51.0591C49.3292 50.9071 49.1762 50.7771 48.9402 50.6701L47.6312 50.0741L48.7862 47.5361L50.3062 48.2281C50.3735 48.2589 50.4474 48.2727 50.5213 48.2683C50.5952 48.264 50.667 48.2416 50.7302 48.2031C50.8552 48.1261 50.9752 47.9601 51.0902 47.7081L51.3332 47.1741L54.1752 48.4681C53.9172 49.0351 53.7152 49.4601 53.5692 49.7431C53.4222 50.0261 53.2862 50.2291 53.1592 50.3541C53.0295 50.4813 52.8749 50.5803 52.7052 50.6451C52.7462 50.9291 52.7412 51.2051 52.6912 51.4741C52.6412 51.7441 52.5632 52.0101 52.4582 52.2751C52.3522 52.5391 52.2392 52.8051 52.1162 53.0741L50.1312 57.4371C49.9234 57.8969 49.71 58.3543 49.4912 58.8091C49.3504 59.1087 49.1887 59.3981 49.0072 59.6751C48.5722 60.3361 47.9822 60.7211 47.2372 60.8321C46.8861 60.879 46.5294 60.8624 46.1842 60.7831C45.5742 60.6508 44.9907 60.4169 44.4582 60.0911C43.8582 59.6981 43.3752 59.3321 43.0112 58.9911C43.0026 58.9868 42.9951 58.9807 42.9892 58.9731L42.9772 58.9681ZM44.7002 52.9581L45.4382 54.9421L43.4612 55.6821L42.7142 53.7021L44.7002 52.9581ZM46.0252 50.0471L46.7632 52.0311L44.7852 52.7721L44.0382 50.7911L46.0252 50.0471ZM36.5512 69.0201L34.6802 67.5441L35.4592 61.0341L38.2342 61.3671L37.7062 65.8271C37.8592 65.7931 38.0242 65.7541 38.1992 65.7121C38.6012 65.6111 39.0632 65.5041 39.5842 65.3901C39.6822 65.3701 39.7742 65.3491 39.8622 65.3281C40.2192 65.2471 40.5382 65.1861 40.8162 65.1431C41.0952 65.1001 41.3652 65.0911 41.6262 65.1171C41.9802 65.1571 42.2822 65.2291 42.5322 65.3341C42.8111 65.4535 43.0757 65.6038 43.3212 65.7821C43.4482 65.8701 43.6102 66.0411 43.8082 66.2941C43.9532 66.4841 44.0692 66.7461 44.1552 67.0801C44.2412 67.4151 44.2362 67.8241 44.1382 68.3071C44.0232 68.8281 43.7642 69.4201 43.3592 70.0841L41.4762 73.1761L38.8152 71.5561L40.6982 68.4641C40.8525 68.2063 40.9989 67.9438 41.1372 67.6771C40.4982 67.7831 39.8462 67.9341 39.1812 68.1301C38.3002 68.3862 37.4304 68.6794 36.5742 69.0091L36.5512 69.0201ZM34.1682 67.1131L33.3872 66.5341L34.1422 61.0221L34.9782 61.1161L34.1682 67.1131Z" fill="white"/>
<path d="M38.8721 71.4612L39.1171 71.1172L41.6651 72.9352L41.4191 73.2802C41.32 73.4195 41.2114 73.5519 41.094 73.6762C41.405 73.8982 41.7041 74.1962 41.9921 74.5722C42.2791 74.9482 42.47 75.3872 42.564 75.8892C42.67 76.4682 42.616 77.0802 42.401 77.7252C42.209 78.2912 41.875 78.9082 41.4 79.5742C40.935 80.2252 40.383 80.7122 39.745 81.0352C39.1188 81.3563 38.4227 81.5171 37.719 81.5032C37.3407 81.4945 36.966 81.4277 36.608 81.3052C36.1778 81.1603 35.7724 80.9502 35.4061 80.6822C35.2693 80.5841 35.1378 80.4789 35.0121 80.3672C34.6426 80.0422 34.2964 79.6917 33.9761 79.3182C33.6198 78.9002 33.3053 78.4484 33.037 77.9692L35.4721 76.5992C35.8621 77.2902 36.277 77.8082 36.719 78.1512L36.802 78.2102C37.091 78.4162 37.3651 78.5282 37.6261 78.5472C37.8261 78.5562 38.0081 78.5162 38.1711 78.4292C38.3341 78.3412 38.4761 78.2362 38.5971 78.1132C38.7181 77.9902 38.8141 77.8792 38.8861 77.7792C39.1711 77.3802 39.3621 77.0512 39.4591 76.7942C39.5561 76.5362 39.5561 76.3122 39.4591 76.1192C39.3621 75.9272 39.1651 75.7252 38.8691 75.5142L31.2271 70.0592L32.8511 67.7842L38.1401 71.5592C38.4291 71.7652 38.6731 71.7322 38.8721 71.4612Z" fill="white"/>
</g>
<defs>
<filter id="filter0_d_246_928" x="0" y="0" width="83.5107" height="117.189" filterUnits="userSpaceOnUse" color-interpolation-filters="sRGB">
<feFlood flood-opacity="0" result="BackgroundImageFix"/>
<feColorMatrix in="SourceAlpha" type="matrix" values="0 0 0 0 0 0 0 0 0 0 0 0 0 0 0 0 0 0 127 0" result="hardAlpha"/>
<feOffset dx="3" dy="2"/>
<feComposite in2="hardAlpha" operator="out"/>
<feColorMatrix type="matrix" values="0 0 0 0 0.388235 0 0 0 0 0.854902 0 0 0 0 0.631373 0 0 0 0.25 0"/>
<feBlend mode="normal" in2="BackgroundImageFix" result="effect1_dropShadow_246_928"/>
<feBlend mode="normal" in="SourceGraphic" in2="effect1_dropShadow_246_928" result="shape"/>
</filter>
</defs>
</svg>
