<svg width="84" height="118" viewBox="0 0 84 118" fill="none" xmlns="http://www.w3.org/2000/svg">
<g filter="url(#filter0_d_246_907)">
<path d="M10.7271 0.245364C6.3081 0.287364 2.7381 3.90636 3.0151 8.31536C4.27931 28.44 9.58326 48.104 18.6106 66.1347C27.638 84.1654 40.2039 100.194 55.5591 113.263C58.9241 116.127 63.9601 115.437 66.6401 111.925L82.3491 91.3423C85.0301 87.8303 84.3331 82.8313 81.0281 79.8983C60.211 61.4264 47.305 35.6488 44.9881 7.91437C44.6201 3.51137 41.0351 -0.0416314 36.6181 0.00036856L10.7271 0.245364Z" fill="#3CD088" fill-opacity="0.83" shape-rendering="crispEdges"/>
</g>
<mask id="mask0_246_907" style="mask-type:luminance" maskUnits="userSpaceOnUse" x="18" y="22" width="38" height="66">
<path d="M18.8271 24.3242L51.7835 22.6282L55.0214 85.5449L22.065 87.241L18.8271 24.3242Z" fill="white"/>
</mask>
<g mask="url(#mask0_246_907)">
<path d="M53.1918 81.3547L50.2908 83.5887C49.7109 84.0365 49.0727 84.4033 48.3938 84.6787C47.7168 84.9537 47.1038 85.0707 46.5548 85.0287C45.8931 84.987 45.2528 84.7782 44.6938 84.4217C44.1358 84.0777 43.6198 83.5967 43.1448 82.9817L42.7378 82.4517L45.2058 80.5507L45.6138 81.0797C46.0878 81.6957 46.5468 82.0197 46.9898 82.0517C47.2708 82.0587 47.5548 81.9877 47.8418 81.8387C48.1288 81.6897 48.3758 81.5347 48.5848 81.3737L51.4858 79.1397L53.1918 81.3547ZM53.8988 74.3197L45.6188 80.2177L43.9968 77.9407L52.2778 72.0427L53.8988 74.3197ZM48.3098 73.4387L48.1008 73.6377C47.9608 73.7707 47.7928 73.9277 47.5958 74.1097C47.3988 74.2927 47.2048 74.4667 47.0138 74.6337C46.8238 74.8007 46.6728 74.9247 46.5628 75.0047C46.2012 75.2726 45.7987 75.4802 45.3708 75.6197C45.0846 75.715 44.7889 75.7787 44.4888 75.8097C44.2618 75.8359 44.0322 75.8302 43.8068 75.7927C42.9318 75.6107 42.2228 75.1137 41.6778 74.3017C41.4228 73.8927 41.2518 73.5107 41.1658 73.1537C41.0844 72.8408 41.049 72.5178 41.0608 72.1947C40.7679 72.0653 40.4921 71.9 40.2398 71.7027C39.9862 71.4997 39.77 71.254 39.6008 70.9767C39.3458 70.5677 39.1858 70.2027 39.1208 69.8807C39.0587 69.5847 39.0358 69.2818 39.0528 68.9797C38.8313 68.9414 38.6197 68.8587 38.4308 68.7367C38.2598 68.6217 38.0608 68.4037 37.8348 68.0847C37.6078 67.7647 37.2768 67.2557 36.8408 66.5587L39.4838 64.9077L40.0438 65.8037C40.2008 66.0547 40.3538 66.2037 40.5038 66.2517C40.6548 66.2997 40.8088 66.2747 40.9678 66.1757L42.3088 65.3377L43.7898 67.7087L42.4198 68.5647C42.2903 68.6383 42.1895 68.7536 42.1338 68.8917C42.1099 68.9541 42.1008 69.0211 42.1072 69.0876C42.1136 69.1541 42.1354 69.2181 42.1708 69.2747C42.3588 69.5747 42.6178 69.6197 42.9468 69.4087L44.3168 68.5527L45.7948 70.9177L44.4238 71.7737C44.2917 71.8506 44.194 71.9751 44.1508 72.1217C44.1305 72.1883 44.125 72.2585 44.1347 72.3274C44.1444 72.3963 44.169 72.4623 44.2068 72.5207C44.3058 72.6787 44.4248 72.7717 44.5628 72.8007C44.7018 72.8297 44.8108 72.8187 44.8918 72.7677L44.9208 72.7497C45.3271 72.3898 45.7291 72.0251 46.1268 71.6557L46.3808 71.4197L48.3098 73.4387Z" fill="white"/>
<path d="M42.3546 59.8047L40.3346 59.1728L40.9606 57.1558L42.9836 57.7787L42.3546 59.8047ZM43.8436 62.6338L41.8236 62.0018L42.4506 59.9857L44.4726 60.6078L43.8436 62.6338ZM40.9796 63.0318L39.3496 63.8898C39.2496 63.9428 39.1876 64.0027 39.1646 64.0717C39.1416 64.1407 39.1766 64.2628 39.2706 64.4398L39.7626 65.3758L37.0106 66.8238L36.5446 65.9368C36.3857 65.6364 36.2731 65.3138 36.2106 64.9798C36.1492 64.6566 36.1311 64.3267 36.1566 63.9987C35.8523 63.8654 35.5802 63.6683 35.3586 63.4207C35.1356 63.1707 34.9036 62.8187 34.6646 62.3647L33.6006 60.3427L36.3526 58.8947L37.5076 61.0918C37.6116 61.2888 37.7006 61.4058 37.7746 61.4448C37.8486 61.4828 37.9396 61.4728 38.0486 61.4158L39.6776 60.5587L40.9796 63.0318Z" fill="white"/>
<path d="M33.6188 45.2898L33.9227 48.0668L33.5067 48.1338C33.2297 48.1778 32.9097 48.2318 32.5467 48.2948C32.4412 48.3069 32.3376 48.3328 32.2387 48.3718C32.1637 48.3992 32.1025 48.4553 32.0687 48.5278C32.0387 48.5968 32.0508 48.6988 32.1068 48.8328L34.6277 54.8658C34.7487 55.1558 34.8888 55.3258 35.0488 55.3778C35.2088 55.4288 35.4078 55.4048 35.6468 55.3048L36.9737 54.7508L38.0488 57.3238L36.5088 57.9678C36.4403 57.9959 36.3799 58.0405 36.3328 58.0975C36.2857 58.1545 36.2534 58.2223 36.2387 58.2948C36.2097 58.4398 36.2488 58.6398 36.3568 58.8958L36.5827 59.4368L33.7007 60.6408C33.5167 60.2075 33.3426 59.7701 33.1787 59.3288C33.0707 59.0298 33.0148 58.7908 33.0088 58.6128C33.0044 58.4311 33.0371 58.2504 33.1048 58.0818C32.8753 57.9246 32.6732 57.7306 32.5067 57.5078C32.3411 57.284 32.1978 57.0445 32.0788 56.7928C31.9558 56.5358 31.8387 56.2708 31.7237 55.9988L29.8757 51.5758C29.6804 51.1106 29.4904 50.6433 29.3057 50.1738C29.182 49.8669 29.0798 49.5518 28.9997 49.2308C28.8107 48.4618 28.9298 47.7668 29.3548 47.1458C29.5378 46.8768 29.7888 46.6308 30.1068 46.4068C30.4303 46.1796 30.7777 45.9884 31.1427 45.8368C31.3567 45.7478 31.5718 45.6728 31.7878 45.6118C32.4838 45.4388 33.0808 45.3348 33.5778 45.2998C33.5866 45.296 33.5962 45.2943 33.6058 45.2948L33.6188 45.2898ZM36.8527 50.6408L34.8968 49.8328L35.6987 47.8788L37.6587 48.6788L36.8527 50.6408ZM38.0857 53.5908L36.1297 52.7828L36.9317 50.8298L38.8917 51.6288L38.0857 53.5908ZM30.6367 33.7588L32.9917 33.3928L37.2277 38.3978L35.0947 40.2028L32.1888 36.7788C32.1088 36.9138 32.0258 37.0608 31.9378 37.2178C31.7378 37.5808 31.5018 37.9918 31.2298 38.4518C31.1778 38.5368 31.1297 38.6188 31.0857 38.6968C30.9236 38.9776 30.7519 39.2528 30.5707 39.5218C30.4198 39.747 30.2411 39.9523 30.0387 40.1328C29.7687 40.3648 29.5097 40.5368 29.2627 40.6488C29.0777 40.7288 28.8977 40.7938 28.7227 40.8438C28.615 40.872 28.5067 40.8977 28.3978 40.9208C28.2458 40.9538 28.0108 40.9568 27.6908 40.9288C27.4538 40.9058 27.1827 40.8118 26.8787 40.6468C26.5747 40.4828 26.2787 40.1998 25.9917 39.7988C25.6887 39.3608 25.4317 38.7668 25.2217 38.0188L24.2397 34.5338L27.2387 33.6888L28.2197 37.1738C28.3024 37.4625 28.3948 37.7483 28.4967 38.0308C28.8547 37.4908 29.1887 36.9108 29.4977 36.2898C29.9104 35.4702 30.288 34.6334 30.6297 33.7818L30.6367 33.7588ZM33.6567 33.3118L34.6127 33.1348L38.1348 37.4408L37.4948 37.9898L33.6567 33.3118Z" fill="white"/>
<path d="M27.2678 33.7969L27.3528 34.2109L24.2858 34.8359L24.2018 34.4209C24.1671 34.2534 24.144 34.0836 24.1328 33.9129C23.7151 33.9915 23.288 34.007 22.8658 33.9589C22.3827 33.9096 21.9184 33.7453 21.5118 33.4799C21.0158 33.1629 20.6048 32.7069 20.2798 32.1099C19.9958 31.5829 19.7728 30.9189 19.6098 30.1169C19.4498 29.3329 19.4698 28.5969 19.6678 27.9099C19.8604 27.2328 20.2173 26.6138 20.7068 26.1079C20.9388 25.8609 21.2398 25.6359 21.6088 25.4309C22.0079 25.2148 22.438 25.0613 22.8838 24.9759C23.0438 24.9429 23.2108 24.9189 23.3838 24.9019C23.8468 24.8539 24.3378 24.8399 24.8568 24.8599C25.4054 24.8834 25.9504 24.9611 26.4838 25.0919L25.8258 27.8069C25.0558 27.6209 24.3938 27.5729 23.8408 27.6619L23.7408 27.6819C23.3938 27.7529 23.1238 27.8769 22.9328 28.0549C22.796 28.1857 22.6974 28.3513 22.6478 28.5339C22.6015 28.7059 22.5812 28.8839 22.5878 29.0619C22.5958 29.2339 22.6118 29.3799 22.6358 29.5009C22.7338 29.9819 22.8438 30.3449 22.9658 30.5919C23.0878 30.8379 23.2528 30.9919 23.4598 31.0519C23.6668 31.1109 23.9478 31.1049 24.3048 31.0329L33.5048 29.1589L34.0628 31.8989L27.6948 33.1949C27.3478 33.2659 27.2048 33.4659 27.2678 33.7969Z" fill="white"/>
</g>
<defs>
<filter id="filter0_d_246_907" x="0" y="0" width="83.9966" height="117.045" filterUnits="userSpaceOnUse" color-interpolation-filters="sRGB">
<feFlood flood-opacity="0" result="BackgroundImageFix"/>
<feColorMatrix in="SourceAlpha" type="matrix" values="0 0 0 0 0 0 0 0 0 0 0 0 0 0 0 0 0 0 127 0" result="hardAlpha"/>
<feOffset dx="-3" dy="2"/>
<feComposite in2="hardAlpha" operator="out"/>
<feColorMatrix type="matrix" values="0 0 0 0 0.388235 0 0 0 0 0.854902 0 0 0 0 0.631373 0 0 0 0.25 0"/>
<feBlend mode="normal" in2="BackgroundImageFix" result="effect1_dropShadow_246_907"/>
<feBlend mode="normal" in="SourceGraphic" in2="effect1_dropShadow_246_907" result="shape"/>
</filter>
</defs>
</svg>
