<svg width="154" height="154" viewBox="0 0 154 154" fill="none" xmlns="http://www.w3.org/2000/svg"><path d="M25.033 46.93C12.011 69.488 19.74 98.334 42.295 111.36l21.786 12.578c22.561 13.022 51.407 5.296 64.429-17.262 13.025-22.562 5.296-51.407-17.262-64.432L89.462 29.665c-22.558-13.022-51.404-5.293-64.429 17.262v.003z" fill="#94E986"/><path d="M49.262 70.514a16.62 16.62 0 1 0 33.24 0 16.62 16.62 0 0 0-33.24 0z" fill="#EA563D"/><path fill-rule="evenodd" clip-rule="evenodd" d="M42.298 111.356c22.558 13.028 51.404 5.299 64.429-17.262 13.025-22.558 5.296-51.404-17.262-64.429-22.561-13.022-51.407-5.293-64.432 17.262-13.022 22.561-5.293 51.407 17.262 64.432l.003-.003zm15.274-26.45A16.62 16.62 0 1 0 61.58 54.46a16.62 16.62 0 0 0-4.011 30.448h.003z" fill="#FFB9EC"/><path d="M25.033 46.93C12.011 69.488 19.74 98.334 42.295 111.36l21.786 12.578c22.561 13.022 51.407 5.296 64.429-17.262 13.025-22.562 5.296-51.407-17.262-64.432L89.462 29.665c-22.558-13.022-51.404-5.293-64.429 17.262v.003z" stroke="#000" stroke-width="5.376" stroke-linecap="round" stroke-linejoin="round"/><path d="M49.262 70.514a16.62 16.62 0 1 0 33.24 0 16.62 16.62 0 0 0-33.24 0z" stroke="#000" stroke-width="5.376" stroke-linecap="round" stroke-linejoin="round"/><path d="M42.298 111.356c22.558 13.028 51.404 5.299 64.429-17.262 13.025-22.558 5.296-51.404-17.262-64.429-22.561-13.022-51.407-5.293-64.432 17.262-13.022 22.561-5.293 51.407 17.262 64.432l.003-.003zm15.274-26.45A16.62 16.62 0 1 0 61.58 54.46a16.62 16.62 0 0 0-4.011 30.448h.003z" stroke="#000" stroke-width="5.376" stroke-linecap="round" stroke-linejoin="round"/></svg>