<svg width="154" height="154" viewBox="0 0 154 154" fill="none" xmlns="http://www.w3.org/2000/svg"><path d="M65.937 16.232c-17.388 0-28.215 18.877-19.43 33.885l5.306 9.064-9.064-5.306c-15.008-8.788-33.885 2.038-33.885 19.43 0 17.389 18.877 28.213 33.885 19.43l9.064-5.305-5.306 9.06c-8.785 15.008 2.038 33.888 19.43 33.888 17.39 0 28.216-18.877 19.43-33.888l-5.305-9.06 9.063 5.305c15.008 8.783 33.885-2.038 33.885-19.43s-18.877-28.215-33.885-19.43l-9.063 5.306 5.305-9.064c8.786-15.008-2.038-33.885-19.43-33.885z" fill="#FFB9EC"/><path d="M65.937 16.232c-17.388 0-28.215 18.877-19.43 33.885l5.306 9.064-9.064-5.306c-15.008-8.788-33.885 2.038-33.885 19.43 0 17.389 18.877 28.213 33.885 19.43l9.064-5.305-5.306 9.06c-8.785 15.008 2.038 33.888 19.43 33.888 17.39 0 28.216-18.877 19.43-33.888l-5.305-9.06 9.063 5.305c15.008 8.783 33.885-2.038 33.885-19.43s-18.877-28.215-33.885-19.43l-9.063 5.306 5.305-9.064c8.786-15.008-2.038-33.885-19.43-33.885z" stroke="#000" stroke-width="5.376" stroke-linejoin="round"/><path d="M102.567 95.75a22.24 22.24 0 0 1-13.442-3.018l-9.06-5.305 5.302 9.063c8.785 15.008-2.038 33.885-19.43 33.885l14.915 5.966a22.74 22.74 0 0 0 6.812 1.029c17.392 0 28.216-18.877 19.43-33.888l-4.527-7.733zM111.869 53.872c6.503 3.808 11.141 10.811 11.141 19.43 0 11.892-8.832 20.715-19.214 22.296l7.053 4.125c15.008 8.786 33.885-2.038 33.885-19.427 0-10.87-7.374-19.176-16.57-21.73l-16.295-4.694zM74.701 17.974c11.92 5.002 17.855 19.868 10.67 32.146l-5.306 9.06 9.06-5.305a22.24 22.24 0 0 1 20.029-1.358c3.675-11.426-2.541-23.723-13.466-27.848L74.78 18.005l-.08-.031z" fill="#FFCE51"/><path d="M102.567 95.75a22.24 22.24 0 0 1-13.442-3.018l-9.06-5.305 5.302 9.063c8.785 15.008-2.038 33.885-19.43 33.885l14.915 5.966a22.74 22.74 0 0 0 6.812 1.029c17.392 0 28.216-18.877 19.43-33.888l-4.527-7.733zM111.869 53.872c6.503 3.808 11.141 10.811 11.141 19.43 0 11.892-8.832 20.715-19.214 22.296l7.053 4.125c15.008 8.786 33.885-2.038 33.885-19.427 0-10.87-7.374-19.176-16.57-21.73l-16.295-4.694zM74.701 17.974c11.92 5.002 17.855 19.868 10.67 32.146l-5.306 9.06 9.06-5.305a22.24 22.24 0 0 1 20.029-1.358c3.675-11.426-2.541-23.723-13.466-27.848L74.78 18.005l-.08-.031z" stroke="#000" stroke-width="5.376" stroke-linejoin="round"/></svg>