<svg width="154" height="154" viewBox="0 0 154 154" fill="none" xmlns="http://www.w3.org/2000/svg"><path fill-rule="evenodd" clip-rule="evenodd" d="M75.84 13.774l36.717 7.3a25.177 25.177 0 0 1 19.788 29.608l-13.791 69.358a25.179 25.179 0 0 1-29.605 19.788l-36.72-7.3a25.186 25.186 0 0 1-19.787-19.783 25.178 25.178 0 0 1 0-9.825l.855-4.296 20.835 4.138-.856 4.299a3.938 3.938 0 0 0 3.094 4.632l36.72 7.3a3.94 3.94 0 0 0 4.632-3.094l4.617-23.222-40.583-8.067A25.178 25.178 0 0 1 41.97 55.002l4.261-21.44a25.181 25.181 0 0 1 29.612-19.788h-.004zm30.64 58.07l5.033-25.303a3.92 3.92 0 0 0-.588-2.958 3.937 3.937 0 0 0-2.509-1.674l-36.717-7.3a3.936 3.936 0 0 0-4.632 3.094l-4.261 21.44a3.938 3.938 0 0 0 3.094 4.633l40.58 8.069z" fill="#89DCFF"/><path d="M16.831 99.72l.856-4.298 15.622 3.202-.855 4.299a25.183 25.183 0 0 0 17.645 29.083l-13.483-2.681A25.177 25.177 0 0 1 16.831 99.72zM75.853 13.774a25.18 25.18 0 0 0-29.605 19.788l-4.265 21.444a25.183 25.183 0 0 0 17.645 29.083l-13.482-2.68A25.18 25.18 0 0 1 26.36 51.8l4.261-21.44A25.178 25.178 0 0 1 60.23 10.575l15.626 3.202-.003-.003z" fill="#FFB9EC"/><path d="M90.88 68.64l5.03-25.304a3.94 3.94 0 0 0-2.267-4.37l14.792 2.943a3.937 3.937 0 0 1 3.097 4.632l-5.033 25.304-15.62-3.206zM82.119 112.696l4.6-23.13 15.639 3.114-4.617 23.222a3.94 3.94 0 0 1-4.632 3.094l-15.62-3.206a3.93 3.93 0 0 0 4.044-1.674c.288-.43.488-.912.589-1.42h-.003z" fill="#94E986"/><path d="M75.84 13.774l36.717 7.3a25.177 25.177 0 0 1 19.788 29.608l-13.791 69.358a25.179 25.179 0 0 1-29.605 19.788l-36.72-7.3a25.186 25.186 0 0 1-19.787-19.783 25.178 25.178 0 0 1 0-9.825l.855-4.296 20.835 4.138-.856 4.299a3.938 3.938 0 0 0 3.094 4.632l36.72 7.3a3.94 3.94 0 0 0 4.632-3.094l4.617-23.222-40.583-8.067A25.178 25.178 0 0 1 41.97 55.002l4.261-21.44a25.181 25.181 0 0 1 29.612-19.788h-.004zm30.64 58.07l5.033-25.303a3.92 3.92 0 0 0-.588-2.958 3.937 3.937 0 0 0-2.509-1.674l-36.717-7.3a3.936 3.936 0 0 0-4.632 3.094l-4.261 21.44a3.938 3.938 0 0 0 3.094 4.633l40.58 8.069z" stroke="#000" stroke-width="5.376" stroke-linecap="square" stroke-linejoin="round"/><path d="M16.831 99.72l.856-4.298 15.622 3.202-.855 4.299a25.183 25.183 0 0 0 17.645 29.083l-13.483-2.681A25.177 25.177 0 0 1 16.831 99.72zM75.853 13.774a25.18 25.18 0 0 0-29.605 19.788l-4.265 21.444a25.183 25.183 0 0 0 17.645 29.083l-13.482-2.68A25.18 25.18 0 0 1 26.36 51.8l4.261-21.44A25.178 25.178 0 0 1 60.23 10.575l15.626 3.202-.003-.003zM90.88 68.64l5.03-25.304a3.94 3.94 0 0 0-2.267-4.37l14.792 2.943a3.937 3.937 0 0 1 3.097 4.632l-5.033 25.304-15.62-3.206zM82.119 112.696l4.6-23.13 15.639 3.114-4.617 23.222a3.94 3.94 0 0 1-4.632 3.094l-15.62-3.206a3.93 3.93 0 0 0 4.044-1.674c.288-.43.488-.912.589-1.42h-.003z" stroke="#000" stroke-width="5.376" stroke-linecap="square" stroke-linejoin="round"/></svg>