<svg width="154" height="154" viewBox="0 0 154 154" fill="none" xmlns="http://www.w3.org/2000/svg"><path d="M8.864 34.81h38.82v32.35h38.82v32.35h38.819v38.82H8.864V34.81z" fill="#89DCFF"/><path d="M28.276 15.269h38.816L47.684 34.813H8.864l19.412-19.544z" fill="#FFB9AA"/><path d="M67.104 15.269v32.35L47.693 67.163v-32.35l19.411-19.544z" fill="#EA563D"/><path d="M67.105 47.62h38.816L86.513 67.16H47.696l19.409-19.54z" fill="#FFB9AA"/><path d="M105.921 47.62v32.35L86.513 99.51V67.16l19.408-19.54z" fill="#EA563D"/><path d="M105.921 79.97h38.82l-19.408 19.543H86.51L105.92 79.97z" fill="#FFB9AA"/><path d="M144.738 79.97v38.819l-19.408 19.547V99.51l19.408-19.54z" fill="#EA563D"/><path d="M8.864 34.81h38.82v32.35h38.82v32.35h38.819v38.82H8.864V34.81z" stroke="#000" stroke-width="5.376" stroke-linejoin="round"/><path d="M8.864 34.81h38.82v32.35h38.82v32.35h38.819v38.82H8.864V34.81z" stroke="#000" stroke-width="5.376" stroke-linejoin="round"/><path d="M28.276 15.269h38.816L47.684 34.813H8.864l19.412-19.544zM67.104 15.269v32.35L47.693 67.163v-32.35l19.411-19.544zM67.105 47.62h38.816L86.513 67.16H47.696l19.409-19.54z" stroke="#000" stroke-width="5.376" stroke-linejoin="round"/><path d="M105.921 47.62v32.35L86.513 99.51V67.16l19.408-19.54z" stroke="#000" stroke-width="5.376" stroke-linejoin="round"/><path d="M105.921 79.97h38.82l-19.408 19.543H86.51L105.92 79.97z" stroke="#000" stroke-width="5.376" stroke-linejoin="round"/><path d="M144.738 79.97v38.819l-19.408 19.547V99.51l19.408-19.54z" stroke="#000" stroke-width="5.376" stroke-linejoin="round"/></svg>